<mxfile host="app.diagrams.net" modified="2021-06-14T06:31:23.791Z" agent="5.0 (Windows NT 10.0; Win64; x64) AppleWebKit/537.36 (KHTML, like Gecko) Chrome/91.0.4472.101 Safari/537.36 Edg/91.0.864.48" etag="ARzmzGhbIPT6Vu3ZoSJZ" version="14.7.7" type="github">
  <diagram id="C5RBs43oDa-KdzZeNtuy" name="Page-1">
    <mxGraphModel dx="1030" dy="679" grid="1" gridSize="10" guides="1" tooltips="1" connect="1" arrows="1" fold="1" page="1" pageScale="1" pageWidth="827" pageHeight="1169" math="0" shadow="0">
      <root>
        <mxCell id="WIyWlLk6GJQsqaUBKTNV-0" />
        <mxCell id="WIyWlLk6GJQsqaUBKTNV-1" parent="WIyWlLk6GJQsqaUBKTNV-0" />
        <mxCell id="Jzof67alMw08wtt1Fque-1" value="M1" style="swimlane;startSize=23;" vertex="1" parent="WIyWlLk6GJQsqaUBKTNV-1">
          <mxGeometry x="314" y="60" width="200" height="100" as="geometry" />
        </mxCell>
        <mxCell id="Jzof67alMw08wtt1Fque-2" value="Горит лампа Reset" style="text;html=1;align=center;verticalAlign=middle;resizable=0;points=[];autosize=1;strokeColor=none;" vertex="1" parent="Jzof67alMw08wtt1Fque-1">
          <mxGeometry x="40" y="50" width="120" height="20" as="geometry" />
        </mxCell>
        <mxCell id="Jzof67alMw08wtt1Fque-3" value="" style="endArrow=classic;html=1;exitX=0.5;exitY=1;exitDx=0;exitDy=0;entryX=0.5;entryY=0;entryDx=0;entryDy=0;" edge="1" parent="WIyWlLk6GJQsqaUBKTNV-1" source="Jzof67alMw08wtt1Fque-1" target="Jzof67alMw08wtt1Fque-4">
          <mxGeometry width="50" height="50" relative="1" as="geometry">
            <mxPoint x="380" y="270" as="sourcePoint" />
            <mxPoint x="414" y="230" as="targetPoint" />
          </mxGeometry>
        </mxCell>
        <mxCell id="Jzof67alMw08wtt1Fque-4" value="M2" style="swimlane;startSize=23;" vertex="1" parent="WIyWlLk6GJQsqaUBKTNV-1">
          <mxGeometry x="314" y="260" width="200" height="100" as="geometry" />
        </mxCell>
        <mxCell id="Jzof67alMw08wtt1Fque-5" value="Горит лампа Start" style="text;html=1;align=center;verticalAlign=middle;resizable=0;points=[];autosize=1;strokeColor=none;" vertex="1" parent="Jzof67alMw08wtt1Fque-4">
          <mxGeometry x="45" y="50" width="110" height="20" as="geometry" />
        </mxCell>
        <mxCell id="Jzof67alMw08wtt1Fque-6" value="Нажатие кнопки Reset" style="text;html=1;strokeColor=none;fillColor=none;align=center;verticalAlign=middle;whiteSpace=wrap;rounded=0;" vertex="1" parent="WIyWlLk6GJQsqaUBKTNV-1">
          <mxGeometry x="430" y="200" width="40" height="20" as="geometry" />
        </mxCell>
        <mxCell id="Jzof67alMw08wtt1Fque-7" value="" style="endArrow=classic;html=1;entryX=0.5;entryY=0;entryDx=0;entryDy=0;" edge="1" parent="WIyWlLk6GJQsqaUBKTNV-1" target="Jzof67alMw08wtt1Fque-8">
          <mxGeometry width="50" height="50" relative="1" as="geometry">
            <mxPoint x="414" y="360" as="sourcePoint" />
            <mxPoint x="414" y="430" as="targetPoint" />
          </mxGeometry>
        </mxCell>
        <mxCell id="Jzof67alMw08wtt1Fque-8" value="M3" style="swimlane;startSize=23;" vertex="1" parent="WIyWlLk6GJQsqaUBKTNV-1">
          <mxGeometry x="314" y="460" width="205" height="100" as="geometry" />
        </mxCell>
        <mxCell id="Jzof67alMw08wtt1Fque-9" value="Поворотный привод перемещается&lt;br&gt;в исходное состояние" style="text;html=1;align=center;verticalAlign=middle;resizable=0;points=[];autosize=1;strokeColor=none;" vertex="1" parent="Jzof67alMw08wtt1Fque-8">
          <mxGeometry x="-5" y="45" width="210" height="30" as="geometry" />
        </mxCell>
        <mxCell id="Jzof67alMw08wtt1Fque-10" value="Нажатие кнопки Start" style="text;html=1;strokeColor=none;fillColor=none;align=center;verticalAlign=middle;whiteSpace=wrap;rounded=0;" vertex="1" parent="WIyWlLk6GJQsqaUBKTNV-1">
          <mxGeometry x="430" y="400" width="40" height="20" as="geometry" />
        </mxCell>
        <mxCell id="Jzof67alMw08wtt1Fque-12" value="" style="endArrow=classic;html=1;entryX=0.5;entryY=0;entryDx=0;entryDy=0;" edge="1" parent="WIyWlLk6GJQsqaUBKTNV-1" target="Jzof67alMw08wtt1Fque-13">
          <mxGeometry width="50" height="50" relative="1" as="geometry">
            <mxPoint x="414" y="560.0000000000001" as="sourcePoint" />
            <mxPoint x="414" y="630" as="targetPoint" />
          </mxGeometry>
        </mxCell>
        <mxCell id="Jzof67alMw08wtt1Fque-13" value="M4" style="swimlane;startSize=23;" vertex="1" parent="WIyWlLk6GJQsqaUBKTNV-1">
          <mxGeometry x="314" y="660" width="200" height="100" as="geometry" />
        </mxCell>
        <mxCell id="Jzof67alMw08wtt1Fque-14" value="Ожидание" style="text;html=1;align=center;verticalAlign=middle;resizable=0;points=[];autosize=1;strokeColor=none;" vertex="1" parent="Jzof67alMw08wtt1Fque-13">
          <mxGeometry x="65" y="50" width="70" height="20" as="geometry" />
        </mxCell>
        <mxCell id="Jzof67alMw08wtt1Fque-15" value="Пов привод пришел в исх состояние" style="text;html=1;strokeColor=none;fillColor=none;align=center;verticalAlign=middle;whiteSpace=wrap;rounded=0;" vertex="1" parent="WIyWlLk6GJQsqaUBKTNV-1">
          <mxGeometry x="430" y="600" width="40" height="20" as="geometry" />
        </mxCell>
        <mxCell id="Jzof67alMw08wtt1Fque-16" value="" style="endArrow=classic;html=1;entryX=0.5;entryY=0;entryDx=0;entryDy=0;" edge="1" parent="WIyWlLk6GJQsqaUBKTNV-1" target="Jzof67alMw08wtt1Fque-17">
          <mxGeometry width="50" height="50" relative="1" as="geometry">
            <mxPoint x="414" y="760" as="sourcePoint" />
            <mxPoint x="414" y="830" as="targetPoint" />
          </mxGeometry>
        </mxCell>
        <mxCell id="Jzof67alMw08wtt1Fque-17" value="M5" style="swimlane;startSize=23;" vertex="1" parent="WIyWlLk6GJQsqaUBKTNV-1">
          <mxGeometry x="311.5" y="860" width="205" height="100" as="geometry" />
        </mxCell>
        <mxCell id="Jzof67alMw08wtt1Fque-18" value="Выдвижение подающего цилиндра" style="text;html=1;align=center;verticalAlign=middle;resizable=0;points=[];autosize=1;strokeColor=none;" vertex="1" parent="Jzof67alMw08wtt1Fque-17">
          <mxGeometry x="-5" y="50" width="210" height="20" as="geometry" />
        </mxCell>
        <mxCell id="Jzof67alMw08wtt1Fque-19" value="Наличие детали в магазине" style="text;html=1;strokeColor=none;fillColor=none;align=center;verticalAlign=middle;whiteSpace=wrap;rounded=0;" vertex="1" parent="WIyWlLk6GJQsqaUBKTNV-1">
          <mxGeometry x="430" y="800" width="40" height="20" as="geometry" />
        </mxCell>
        <mxCell id="Jzof67alMw08wtt1Fque-20" value="" style="endArrow=classic;html=1;entryX=0.48;entryY=0;entryDx=0;entryDy=0;entryPerimeter=0;" edge="1" parent="WIyWlLk6GJQsqaUBKTNV-1" target="Jzof67alMw08wtt1Fque-21">
          <mxGeometry width="50" height="50" relative="1" as="geometry">
            <mxPoint x="416.5" y="960" as="sourcePoint" />
            <mxPoint x="416.5" y="1030" as="targetPoint" />
          </mxGeometry>
        </mxCell>
        <mxCell id="Jzof67alMw08wtt1Fque-21" value="M6" style="swimlane;startSize=23;" vertex="1" parent="WIyWlLk6GJQsqaUBKTNV-1">
          <mxGeometry x="311.5" y="1069" width="220" height="100" as="geometry" />
        </mxCell>
        <mxCell id="Jzof67alMw08wtt1Fque-22" value="Поворотный привод&lt;br&gt;Движется к позиции&lt;br&gt;&quot;Магазин&quot;" style="text;html=1;align=center;verticalAlign=middle;resizable=0;points=[];autosize=1;strokeColor=none;" vertex="1" parent="Jzof67alMw08wtt1Fque-21">
          <mxGeometry x="40" y="40" width="130" height="50" as="geometry" />
        </mxCell>
        <mxCell id="Jzof67alMw08wtt1Fque-23" value="Цилиндр подал деталь" style="text;html=1;strokeColor=none;fillColor=none;align=center;verticalAlign=middle;whiteSpace=wrap;rounded=0;" vertex="1" parent="WIyWlLk6GJQsqaUBKTNV-1">
          <mxGeometry x="432.5" y="1000" width="40" height="20" as="geometry" />
        </mxCell>
        <mxCell id="Jzof67alMw08wtt1Fque-24" value="" style="endArrow=classic;html=1;entryX=0.48;entryY=0;entryDx=0;entryDy=0;entryPerimeter=0;" edge="1" parent="WIyWlLk6GJQsqaUBKTNV-1" target="Jzof67alMw08wtt1Fque-25">
          <mxGeometry width="50" height="50" relative="1" as="geometry">
            <mxPoint x="416.5" y="1168.9999999999998" as="sourcePoint" />
            <mxPoint x="416.5" y="1239" as="targetPoint" />
          </mxGeometry>
        </mxCell>
        <mxCell id="Jzof67alMw08wtt1Fque-25" value="M7" style="swimlane;startSize=23;" vertex="1" parent="WIyWlLk6GJQsqaUBKTNV-1">
          <mxGeometry x="311.5" y="1278" width="220" height="100" as="geometry" />
        </mxCell>
        <mxCell id="Jzof67alMw08wtt1Fque-26" value="Включение вакуума(подхват детали)" style="text;html=1;align=center;verticalAlign=middle;resizable=0;points=[];autosize=1;strokeColor=none;" vertex="1" parent="Jzof67alMw08wtt1Fque-25">
          <mxGeometry x="-5" y="55" width="220" height="20" as="geometry" />
        </mxCell>
        <mxCell id="Jzof67alMw08wtt1Fque-27" value="Пов привод пришел в позицию &quot;Магазин&quot;" style="text;html=1;strokeColor=none;fillColor=none;align=center;verticalAlign=middle;whiteSpace=wrap;rounded=0;" vertex="1" parent="WIyWlLk6GJQsqaUBKTNV-1">
          <mxGeometry x="432.5" y="1209" width="40" height="20" as="geometry" />
        </mxCell>
        <mxCell id="Jzof67alMw08wtt1Fque-28" value="" style="endArrow=classic;html=1;entryX=0.48;entryY=0;entryDx=0;entryDy=0;entryPerimeter=0;" edge="1" parent="WIyWlLk6GJQsqaUBKTNV-1" target="Jzof67alMw08wtt1Fque-29">
          <mxGeometry width="50" height="50" relative="1" as="geometry">
            <mxPoint x="419" y="1377.9999999999998" as="sourcePoint" />
            <mxPoint x="419" y="1448" as="targetPoint" />
          </mxGeometry>
        </mxCell>
        <mxCell id="Jzof67alMw08wtt1Fque-29" value="M8" style="swimlane;startSize=23;" vertex="1" parent="WIyWlLk6GJQsqaUBKTNV-1">
          <mxGeometry x="314" y="1487" width="220" height="100" as="geometry" />
        </mxCell>
        <mxCell id="Jzof67alMw08wtt1Fque-30" value="Пов привод движется к позиции&lt;br&gt;&quot;Следующая станция&quot;" style="text;html=1;align=center;verticalAlign=middle;resizable=0;points=[];autosize=1;strokeColor=none;" vertex="1" parent="Jzof67alMw08wtt1Fque-29">
          <mxGeometry x="10" y="50" width="190" height="30" as="geometry" />
        </mxCell>
        <mxCell id="Jzof67alMw08wtt1Fque-31" value="деталь подхвачена" style="text;html=1;strokeColor=none;fillColor=none;align=center;verticalAlign=middle;whiteSpace=wrap;rounded=0;" vertex="1" parent="WIyWlLk6GJQsqaUBKTNV-1">
          <mxGeometry x="435" y="1418" width="40" height="20" as="geometry" />
        </mxCell>
        <mxCell id="Jzof67alMw08wtt1Fque-32" value="" style="endArrow=classic;html=1;entryX=0.48;entryY=0;entryDx=0;entryDy=0;entryPerimeter=0;" edge="1" parent="WIyWlLk6GJQsqaUBKTNV-1" target="Jzof67alMw08wtt1Fque-33">
          <mxGeometry width="50" height="50" relative="1" as="geometry">
            <mxPoint x="419" y="1587" as="sourcePoint" />
            <mxPoint x="419" y="1657" as="targetPoint" />
          </mxGeometry>
        </mxCell>
        <mxCell id="Jzof67alMw08wtt1Fque-33" value="M9" style="swimlane;startSize=23;" vertex="1" parent="WIyWlLk6GJQsqaUBKTNV-1">
          <mxGeometry x="314" y="1696" width="220" height="100" as="geometry" />
        </mxCell>
        <mxCell id="Jzof67alMw08wtt1Fque-34" value="Сброс детали" style="text;html=1;align=center;verticalAlign=middle;resizable=0;points=[];autosize=1;strokeColor=none;" vertex="1" parent="Jzof67alMw08wtt1Fque-33">
          <mxGeometry x="60" y="55" width="90" height="20" as="geometry" />
        </mxCell>
        <mxCell id="Jzof67alMw08wtt1Fque-35" value="Пов привод пришел в позицию &quot;сл станция&quot;" style="text;html=1;strokeColor=none;fillColor=none;align=center;verticalAlign=middle;whiteSpace=wrap;rounded=0;" vertex="1" parent="WIyWlLk6GJQsqaUBKTNV-1">
          <mxGeometry x="435" y="1627" width="40" height="20" as="geometry" />
        </mxCell>
        <mxCell id="Jzof67alMw08wtt1Fque-36" value="" style="endArrow=classic;html=1;entryX=0.48;entryY=0;entryDx=0;entryDy=0;entryPerimeter=0;" edge="1" parent="WIyWlLk6GJQsqaUBKTNV-1">
          <mxGeometry width="50" height="50" relative="1" as="geometry">
            <mxPoint x="419" y="1796" as="sourcePoint" />
            <mxPoint x="419.5999999999999" y="1905" as="targetPoint" />
          </mxGeometry>
        </mxCell>
        <mxCell id="Jzof67alMw08wtt1Fque-39" value="Переход к состоянию M4" style="text;html=1;strokeColor=none;fillColor=none;align=center;verticalAlign=middle;whiteSpace=wrap;rounded=0;" vertex="1" parent="WIyWlLk6GJQsqaUBKTNV-1">
          <mxGeometry x="404" y="1930" width="40" height="20" as="geometry" />
        </mxCell>
        <mxCell id="Jzof67alMw08wtt1Fque-41" value="M1" style="swimlane;startSize=23;" vertex="1" parent="WIyWlLk6GJQsqaUBKTNV-1">
          <mxGeometry x="877.5" y="60" width="200" height="100" as="geometry" />
        </mxCell>
        <mxCell id="Jzof67alMw08wtt1Fque-42" value="Горит лампа Reset" style="text;html=1;align=center;verticalAlign=middle;resizable=0;points=[];autosize=1;strokeColor=none;" vertex="1" parent="Jzof67alMw08wtt1Fque-41">
          <mxGeometry x="40" y="50" width="120" height="20" as="geometry" />
        </mxCell>
        <mxCell id="Jzof67alMw08wtt1Fque-43" value="" style="endArrow=classic;html=1;exitX=0.5;exitY=1;exitDx=0;exitDy=0;entryX=0.5;entryY=0;entryDx=0;entryDy=0;" edge="1" parent="WIyWlLk6GJQsqaUBKTNV-1" source="Jzof67alMw08wtt1Fque-41" target="Jzof67alMw08wtt1Fque-44">
          <mxGeometry width="50" height="50" relative="1" as="geometry">
            <mxPoint x="567.5" y="280" as="sourcePoint" />
            <mxPoint x="601.5" y="240" as="targetPoint" />
          </mxGeometry>
        </mxCell>
        <mxCell id="Jzof67alMw08wtt1Fque-44" value="M2" style="swimlane;startSize=23;" vertex="1" parent="WIyWlLk6GJQsqaUBKTNV-1">
          <mxGeometry x="877.5" y="260" width="200" height="100" as="geometry" />
        </mxCell>
        <mxCell id="Jzof67alMw08wtt1Fque-45" value="Горит лампа Start" style="text;html=1;align=center;verticalAlign=middle;resizable=0;points=[];autosize=1;strokeColor=none;" vertex="1" parent="Jzof67alMw08wtt1Fque-44">
          <mxGeometry x="45" y="50" width="110" height="20" as="geometry" />
        </mxCell>
        <mxCell id="Jzof67alMw08wtt1Fque-47" value="" style="endArrow=classic;html=1;" edge="1" parent="WIyWlLk6GJQsqaUBKTNV-1">
          <mxGeometry width="50" height="50" relative="1" as="geometry">
            <mxPoint x="977.5" y="360" as="sourcePoint" />
            <mxPoint x="977.5" y="460" as="targetPoint" />
          </mxGeometry>
        </mxCell>
        <mxCell id="Jzof67alMw08wtt1Fque-48" value="Нажатие кнопки Start" style="text;html=1;strokeColor=none;fillColor=none;align=center;verticalAlign=middle;whiteSpace=wrap;rounded=0;" vertex="1" parent="WIyWlLk6GJQsqaUBKTNV-1">
          <mxGeometry x="993.5" y="400" width="40" height="20" as="geometry" />
        </mxCell>
        <mxCell id="Jzof67alMw08wtt1Fque-49" value="M3" style="swimlane;startSize=23;" vertex="1" parent="WIyWlLk6GJQsqaUBKTNV-1">
          <mxGeometry x="872.5" y="460" width="205" height="100" as="geometry" />
        </mxCell>
        <mxCell id="Jzof67alMw08wtt1Fque-50" value="Ожидание" style="text;html=1;align=center;verticalAlign=middle;resizable=0;points=[];autosize=1;strokeColor=none;" vertex="1" parent="Jzof67alMw08wtt1Fque-49">
          <mxGeometry x="65" y="50" width="70" height="20" as="geometry" />
        </mxCell>
        <mxCell id="Jzof67alMw08wtt1Fque-51" value="Станция №1" style="text;html=1;strokeColor=none;fillColor=none;align=center;verticalAlign=middle;whiteSpace=wrap;rounded=0;" vertex="1" parent="WIyWlLk6GJQsqaUBKTNV-1">
          <mxGeometry x="390" y="10" width="40" height="20" as="geometry" />
        </mxCell>
        <mxCell id="Jzof67alMw08wtt1Fque-52" value="Станция №2" style="text;html=1;strokeColor=none;fillColor=none;align=center;verticalAlign=middle;whiteSpace=wrap;rounded=0;" vertex="1" parent="WIyWlLk6GJQsqaUBKTNV-1">
          <mxGeometry x="964.5" y="10" width="40" height="20" as="geometry" />
        </mxCell>
        <mxCell id="Jzof67alMw08wtt1Fque-53" value="" style="endArrow=classic;html=1;" edge="1" parent="WIyWlLk6GJQsqaUBKTNV-1">
          <mxGeometry width="50" height="50" relative="1" as="geometry">
            <mxPoint x="977.5" y="560" as="sourcePoint" />
            <mxPoint x="977.5" y="659.9999999999998" as="targetPoint" />
          </mxGeometry>
        </mxCell>
        <mxCell id="Jzof67alMw08wtt1Fque-54" value="Срабатывание 1го емкостного датчика&amp;nbsp;" style="text;html=1;strokeColor=none;fillColor=none;align=center;verticalAlign=middle;whiteSpace=wrap;rounded=0;" vertex="1" parent="WIyWlLk6GJQsqaUBKTNV-1">
          <mxGeometry x="1004.5" y="600" width="40" height="20" as="geometry" />
        </mxCell>
        <mxCell id="Jzof67alMw08wtt1Fque-55" value="M4" style="swimlane;startSize=23;" vertex="1" parent="WIyWlLk6GJQsqaUBKTNV-1">
          <mxGeometry x="872.5" y="660" width="205" height="100" as="geometry" />
        </mxCell>
        <mxCell id="Jzof67alMw08wtt1Fque-56" value="Поворот диска" style="text;html=1;align=center;verticalAlign=middle;resizable=0;points=[];autosize=1;strokeColor=none;" vertex="1" parent="Jzof67alMw08wtt1Fque-55">
          <mxGeometry x="50" y="50" width="100" height="20" as="geometry" />
        </mxCell>
        <mxCell id="Jzof67alMw08wtt1Fque-58" value="Срабатывание&amp;nbsp;&lt;br&gt;Индуктивного датчика положения диска&amp;nbsp;" style="text;html=1;strokeColor=none;fillColor=none;align=center;verticalAlign=middle;whiteSpace=wrap;rounded=0;" vertex="1" parent="WIyWlLk6GJQsqaUBKTNV-1">
          <mxGeometry x="1013" y="800" width="40" height="20" as="geometry" />
        </mxCell>
        <mxCell id="Jzof67alMw08wtt1Fque-59" value="" style="endArrow=classic;html=1;" edge="1" parent="WIyWlLk6GJQsqaUBKTNV-1">
          <mxGeometry width="50" height="50" relative="1" as="geometry">
            <mxPoint x="975" y="759.9999999999998" as="sourcePoint" />
            <mxPoint x="975" y="859.9999999999998" as="targetPoint" />
          </mxGeometry>
        </mxCell>
        <mxCell id="Jzof67alMw08wtt1Fque-61" value="M4" style="swimlane;startSize=23;" vertex="1" parent="WIyWlLk6GJQsqaUBKTNV-1">
          <mxGeometry x="870" y="860" width="205" height="100" as="geometry" />
        </mxCell>
        <mxCell id="Jzof67alMw08wtt1Fque-62" value="Остановка диска" style="text;html=1;align=center;verticalAlign=middle;resizable=0;points=[];autosize=1;strokeColor=none;" vertex="1" parent="Jzof67alMw08wtt1Fque-61">
          <mxGeometry x="45" y="50" width="110" height="20" as="geometry" />
        </mxCell>
        <mxCell id="Jzof67alMw08wtt1Fque-65" value="Нажатие кнопки Reset" style="text;html=1;strokeColor=none;fillColor=none;align=center;verticalAlign=middle;whiteSpace=wrap;rounded=0;" vertex="1" parent="WIyWlLk6GJQsqaUBKTNV-1">
          <mxGeometry x="993.5" y="200" width="40" height="20" as="geometry" />
        </mxCell>
        <mxCell id="Jzof67alMw08wtt1Fque-66" value="M5.1" style="swimlane;startSize=23;" vertex="1" parent="WIyWlLk6GJQsqaUBKTNV-1">
          <mxGeometry x="700" y="1060" width="205" height="100" as="geometry" />
        </mxCell>
        <mxCell id="Jzof67alMw08wtt1Fque-81" value="Включение Проверяющего модуля" style="text;html=1;strokeColor=none;fillColor=none;align=center;verticalAlign=middle;whiteSpace=wrap;rounded=0;" vertex="1" parent="Jzof67alMw08wtt1Fque-66">
          <mxGeometry x="80" y="49" width="40" height="20" as="geometry" />
        </mxCell>
        <mxCell id="Jzof67alMw08wtt1Fque-68" value="" style="endArrow=classic;html=1;entryX=0.451;entryY=0.006;entryDx=0;entryDy=0;entryPerimeter=0;" edge="1" parent="WIyWlLk6GJQsqaUBKTNV-1" target="Jzof67alMw08wtt1Fque-66">
          <mxGeometry width="50" height="50" relative="1" as="geometry">
            <mxPoint x="930" y="960" as="sourcePoint" />
            <mxPoint x="960" y="1020" as="targetPoint" />
          </mxGeometry>
        </mxCell>
        <mxCell id="Jzof67alMw08wtt1Fque-69" value="Срабатывание 2го емкостного датчика&amp;nbsp;" style="text;html=1;strokeColor=none;fillColor=none;align=center;verticalAlign=middle;whiteSpace=wrap;rounded=0;" vertex="1" parent="WIyWlLk6GJQsqaUBKTNV-1">
          <mxGeometry x="780" y="990" width="40" height="20" as="geometry" />
        </mxCell>
        <mxCell id="Jzof67alMw08wtt1Fque-72" value="" style="endArrow=classic;html=1;exitX=0.75;exitY=1;exitDx=0;exitDy=0;" edge="1" parent="WIyWlLk6GJQsqaUBKTNV-1" source="Jzof67alMw08wtt1Fque-61">
          <mxGeometry width="50" height="50" relative="1" as="geometry">
            <mxPoint x="1070" y="1080" as="sourcePoint" />
            <mxPoint x="1140" y="1060" as="targetPoint" />
          </mxGeometry>
        </mxCell>
        <mxCell id="Jzof67alMw08wtt1Fque-73" value="M5.2" style="swimlane;startSize=23;" vertex="1" parent="WIyWlLk6GJQsqaUBKTNV-1">
          <mxGeometry x="1033.5" y="1060" width="205" height="100" as="geometry" />
        </mxCell>
        <mxCell id="Jzof67alMw08wtt1Fque-75" value="Срабатывание 3го, 2го емкостных датчиков&amp;nbsp;" style="text;html=1;strokeColor=none;fillColor=none;align=center;verticalAlign=middle;whiteSpace=wrap;rounded=0;" vertex="1" parent="WIyWlLk6GJQsqaUBKTNV-1">
          <mxGeometry x="1140" y="990" width="40" height="20" as="geometry" />
        </mxCell>
      </root>
    </mxGraphModel>
  </diagram>
</mxfile>
